<?xml version="1.0" encoding="UTF-8" standalone="no"?><!DOCTYPE svg PUBLIC "-//W3C//DTD SVG 1.1//EN" "http://www.w3.org/Graphics/SVG/1.1/DTD/svg11.dtd"><svg width="100%" height="100%" viewBox="0 0 129 55" version="1.1" xmlns="http://www.w3.org/2000/svg" xmlns:xlink="http://www.w3.org/1999/xlink" xml:space="preserve" xmlns:serif="http://www.serif.com/" style="fill-rule:evenodd;clip-rule:evenodd;stroke-linejoin:round;stroke-miterlimit:2;"><g id="ON-enabled-" serif:id="ON(enabled)"><g id="ON-enabled-1" serif:id="ON(enabled)"><path d="M128.36,27.017c0,-14.911 -12.106,-27.017 -27.016,-27.017l-74.327,0c-14.911,0 -27.017,12.106 -27.017,27.017c0,14.91 12.106,27.016 27.017,27.016l74.327,0c14.91,0 27.016,-12.106 27.016,-27.016Z" style="fill:#3f96e2;"/><path d="M128.36,27.017c0,-14.911 -12.106,-27.017 -27.016,-27.017l-74.327,0c-14.911,0 -27.017,12.106 -27.017,27.017c0,14.91 12.106,27.016 27.017,27.016l74.327,0c14.91,0 27.016,-12.106 27.016,-27.016Z" style="fill:#3f96e2;"/><ellipse cx="99.838" cy="27.017" rx="22.68" ry="23.023" style="fill:#fff;"/><ellipse cx="99.838" cy="27.017" rx="22.68" ry="23.023" style="fill:#fff;"/></g></g></svg>