<?xml version="1.0" encoding="UTF-8" standalone="no"?>
<!DOCTYPE svg PUBLIC "-//W3C//DTD SVG 1.1//EN" "http://www.w3.org/Graphics/SVG/1.1/DTD/svg11.dtd">
<svg width="100%" height="100%" viewBox="0 0 21 19" version="1.1" xmlns="http://www.w3.org/2000/svg" xmlns:xlink="http://www.w3.org/1999/xlink" xml:space="preserve" xmlns:serif="http://www.serif.com/" style="fill-rule:evenodd;clip-rule:evenodd;stroke-linecap:round;stroke-linejoin:round;stroke-miterlimit:1.5;">
    <g transform="matrix(1.33333,0,0,1.33333,-972.669,-770.434)">
        <g id="OFF-enabled-" serif:id="OFF(enabled)">
        </g>
        <g id="ON-enabled-" serif:id="ON(enabled)">
        </g>
        <g id="OFF-disabled-" serif:id="OFF(disabled)">
        </g>
        <g id="ON-disabled-" serif:id="ON(disabled)">
        </g>
        <g transform="matrix(1,-0,0,-1,0,1169.68)">
            <g transform="matrix(-0.0511502,0,0,0.0519237,807.099,532.137)">
                <path d="M1433.06,935.097C1411.87,913.905 1383.13,902 1353.16,902C1290.79,902 1240.16,952.634 1240.16,1015C1240.16,1077.37 1290.79,1128 1353.16,1128C1396.36,1128 1435.78,1103.37 1454.72,1064.54C1435.78,1103.37 1396.36,1128 1353.16,1128C1290.79,1128 1240.16,1077.37 1240.16,1015C1240.16,952.634 1290.79,902 1353.16,902C1383.13,902 1411.87,913.905 1433.06,935.097Z" style="fill:none;stroke:white;stroke-width:44.47px;"/>
            </g>
            <g transform="matrix(1.31538,-0.360125,0.360125,1.31538,-439.294,78.8313)">
                <path d="M730.552,584L732.105,586L729,586L730.552,584Z" style="fill:none;stroke:white;stroke-width:1.68px;stroke-linecap:square;"/>
            </g>
        </g>
    </g>
</svg>
