<?xml version="1.0" encoding="UTF-8" standalone="no"?><!DOCTYPE svg PUBLIC "-//W3C//DTD SVG 1.1//EN" "http://www.w3.org/Graphics/SVG/1.1/DTD/svg11.dtd"><svg width="100%" height="100%" viewBox="0 0 21 19" version="1.1" xmlns="http://www.w3.org/2000/svg" xmlns:xlink="http://www.w3.org/1999/xlink" xml:space="preserve" xmlns:serif="http://www.serif.com/" style="fill-rule:evenodd;clip-rule:evenodd;stroke-linecap:round;stroke-linejoin:round;stroke-miterlimit:1.5;"><g><path d="M5.728,3.819c1.445,-1.467 3.405,-2.291 5.449,-2.291c4.254,-0 7.707,3.505 7.707,7.823c-0,4.318 -3.453,7.823 -7.707,7.823c-2.946,0 -5.635,-1.705 -6.927,-4.394c1.292,2.689 3.981,4.394 6.927,4.394c4.254,0 7.707,-3.505 7.707,-7.823c-0,-4.318 -3.453,-7.823 -7.707,-7.823c-2.044,-0 -4.004,0.824 -5.449,2.291Z" style="fill:none;stroke:#fff;stroke-width:3.06px;"/><path d="M3.29,8.127l3.683,2.762l-5.445,1.491l1.762,-4.253Z" style="fill:none;stroke:#fff;stroke-width:3.06px;stroke-linecap:square;"/></g></svg>